<svg width="48" height="48" viewBox="0 0 48 48" fill="none" xmlns="http://www.w3.org/2000/svg">
<g clip-path="url(#clip0_2_2000)">
<path d="M24 22.5938H5.625V42.375L24 48L42.2812 42.375V22.5938H24Z" fill="#FABE2C"/>
<path d="M42.2812 22.5938H24V48L42.2812 42.375V22.5938Z" fill="#FF9100"/>
<path d="M24 14.1562L5.625 21.1875L11.3557 27.2499L24 28.2188L36.9574 27.1294L42.2812 21.1875L24 14.1562Z" fill="#FABE2C"/>
<path d="M42.2812 21.1875L24 14.1562V28.2188L36.9574 27.1294L42.2812 21.1875Z" fill="#FF9100"/>
<path d="M28.8684 0C26.5021 0 24.9586 1.26891 24.0001 2.55844C23.0415 1.26891 21.498 0 19.1317 0C15.6134 0 12.8585 2.93887 12.8585 6.69066C12.8585 10.6965 16.0912 13.519 20.5654 17.2956C23.0863 19.4262 23.0014 19.3778 24.0001 20.2358L24.9215 19.4378C25.8046 18.6715 26.645 17.963 27.4347 17.2955C31.9089 13.5189 35.1416 10.6964 35.1416 6.69056C35.1416 2.93887 32.3867 0 28.8684 0V0Z" fill="#FF7816"/>
<path d="M27.4346 17.2956C31.9088 13.519 35.1415 10.6965 35.1415 6.69066C35.1415 2.93887 32.3867 0 28.8683 0C26.5021 0 24.9586 1.26891 24 2.55844V20.2358L24.9215 19.4379C25.8045 18.6716 26.645 17.963 27.4346 17.2956Z" fill="#EC5569"/>
<path d="M18.375 36.6562L0 31.0312L5.625 21.1875L24 28.2188L18.375 36.6562Z" fill="#FED843"/>
<path d="M29.625 36.6562L48 31.0312L42.2812 21.1875L24 28.2188L29.625 36.6562Z" fill="#FABE2C"/>
</g>
<defs>
<clipPath id="clip0_2_2000">
<rect width="48" height="48" fill="white"/>
</clipPath>
</defs>
</svg>
